<svg width="31" height="35" viewBox="0 0 31 35" fill="none" xmlns="http://www.w3.org/2000/svg">
<path fill-rule="evenodd" clip-rule="evenodd" d="M1.37563 33.0424C2.01994 33.6667 3.06196 33.6667 3.70468 33.0424L17.3274 19.8118C17.6323 19.5202 17.8751 19.1692 18.0411 18.7802C18.207 18.3911 18.2925 17.9722 18.2925 17.5488C18.2925 17.1255 18.207 16.7066 18.0411 16.3175C17.8751 15.9285 17.6323 15.5775 17.3274 15.2859L3.60604 1.95767C3.29464 1.6598 2.88224 1.49238 2.45262 1.4894C2.023 1.48643 1.60836 1.64813 1.2929 1.94166C1.13664 2.08661 1.0116 2.2623 0.925539 2.45786C0.83948 2.65342 0.794228 2.86467 0.792588 3.07854C0.790947 3.29241 0.832952 3.50434 0.916002 3.70121C0.999052 3.89808 1.12138 4.07569 1.2754 4.22306L13.8338 16.4177C13.9864 16.5636 14.1079 16.7391 14.191 16.9337C14.274 17.1283 14.3168 17.3379 14.3168 17.5496C14.3168 17.7614 14.274 17.971 14.191 18.1656C14.1079 18.3602 13.9864 18.5357 13.8338 18.6815L1.37563 30.7802C1.22308 30.9259 1.1016 31.1013 1.01858 31.2957C0.935567 31.4902 0.892755 31.6996 0.892755 31.9113C0.892755 32.1229 0.935567 32.3323 1.01858 32.5268C1.1016 32.7213 1.22308 32.8967 1.37563 33.0424Z" fill="#EEEEEE"/>
<path fill-rule="evenodd" clip-rule="evenodd" d="M11.8508 34.4882C12.5499 35.1706 13.6806 35.1706 14.3781 34.4882L29.1601 20.0269C29.491 19.7081 29.7545 19.3245 29.9346 18.8992C30.1146 18.474 30.2074 18.0161 30.2074 17.5534C30.2074 17.0906 30.1146 16.6327 29.9346 16.2075C29.7545 15.7823 29.491 15.3986 29.1601 15.0799L14.271 0.511865C13.9331 0.186289 13.4856 0.00329418 13.0194 4.40434e-05C12.5533 -0.00320609 12.1033 0.173532 11.761 0.494366C11.5915 0.652803 11.4558 0.844841 11.3624 1.05859C11.269 1.27234 11.2199 1.50324 11.2181 1.737C11.2163 1.97077 11.2619 2.20241 11.352 2.4176C11.4422 2.63278 11.5749 2.82692 11.742 2.98799L25.3692 16.3171C25.5348 16.4765 25.6667 16.6683 25.7568 16.881C25.8469 17.0937 25.8933 17.3228 25.8933 17.5543C25.8933 17.7857 25.8469 18.0148 25.7568 18.2275C25.6667 18.4402 25.5348 18.632 25.3692 18.7914L11.8508 32.0155C11.6853 32.1748 11.5534 32.3665 11.4634 32.579C11.3733 32.7916 11.3268 33.0205 11.3268 33.2518C11.3268 33.4832 11.3733 33.7121 11.4634 33.9246C11.5534 34.1372 11.6853 34.3289 11.8508 34.4882Z" fill="#EEEEEE"/>
</svg>
