<svg width="35" height="37" viewBox="0 0 35 37" fill="none" xmlns="http://www.w3.org/2000/svg">
<path d="M25.2494 24.9002C25.2494 26.0048 24.354 26.9002 23.2494 26.9002H13.5724C13.1397 26.9002 12.7187 27.0406 12.3725 27.3002L10.212 28.9203C9.47219 29.4751 8.41648 28.9472 8.41648 28.0225V28.0225C8.41648 27.4027 7.91403 26.9002 7.29422 26.9002H5.36659C4.26202 26.9002 3.36659 26.0048 3.36659 24.9002V13.7506C3.36659 12.646 4.26202 11.7506 5.36659 11.7506H16.833C17.7626 11.7506 18.5162 10.9969 18.5162 10.0673V10.0673C18.5162 9.13762 17.7626 8.38398 16.833 8.38398H3.36659C1.50992 8.38398 0 9.89389 0 11.7506V26.9002C0 28.7569 1.50992 30.2668 3.36659 30.2668V30.2668C4.29625 30.2668 5.04989 31.0205 5.04989 31.9501V32.9999C5.04989 34.648 6.93147 35.5887 8.24993 34.5998L13.4936 30.6669C13.8398 30.4072 14.2608 30.2668 14.6936 30.2668H25.2494C27.1061 30.2668 28.616 28.7569 28.616 26.9002V18.4838C28.616 17.5541 27.8624 16.8005 26.9327 16.8005V16.8005C26.0031 16.8005 25.2494 17.5541 25.2494 18.4838V24.9002ZM33.6659 4.03098C34.3232 3.37371 34.3232 2.30807 33.6659 1.6508V1.6508C33.0086 0.99353 31.943 0.99353 31.2857 1.6508L30.0302 2.90629C29.2492 3.68734 27.9829 3.68734 27.2018 2.90629L25.9463 1.6508C25.289 0.99353 24.2234 0.99353 23.5661 1.6508V1.6508C22.9089 2.30807 22.9089 3.37371 23.5661 4.03098L24.8216 5.28647C25.6027 6.06752 25.6027 7.33385 24.8216 8.1149L23.5661 9.37039C22.9089 10.0277 22.9089 11.0933 23.5661 11.7506V11.7506C24.2234 12.4078 25.289 12.4078 25.9463 11.7506L27.2018 10.4951C27.9829 9.71403 29.2492 9.71403 30.0302 10.4951L31.2857 11.7506C31.943 12.4078 33.0086 12.4078 33.6659 11.7506V11.7506C34.3232 11.0933 34.3232 10.0277 33.6659 9.37039L32.4104 8.1149C31.6294 7.33385 31.6294 6.06752 32.4104 5.28647L33.6659 4.03098Z" fill="#757575"/>
</svg>
