<svg width="31" height="31" viewBox="0 0 31 31" fill="none" xmlns="http://www.w3.org/2000/svg">
<path id="Vector" d="M2.239 15.8499L2.23899 15.8499L2.24712 15.8509L13.7711 17.2307L15.1508 28.7562L15.1507 28.7562L15.1518 28.7643C15.2001 29.1188 15.4752 29.4332 15.859 29.4881L15.8942 29.4931H15.8943C15.9171 29.4965 15.9492 29.5 15.9849 29.5C16.2998 29.5 16.6044 29.3212 16.7462 29.0224C16.7466 29.0215 16.747 29.0207 16.7474 29.0199L29.4177 2.7115L29.4191 2.70857C29.5721 2.3854 29.5036 1.99998 29.2519 1.74819C29.0001 1.49638 28.6146 1.42783 28.2915 1.58094L28.2914 1.58093L28.2886 1.5823L1.97941 14.2492L1.97938 14.2492L1.97268 14.2525C1.64284 14.4175 1.45845 14.7695 1.50795 15.1325L1.50945 15.1435L1.51143 15.1544C1.57808 15.521 1.87511 15.8002 2.239 15.8499ZM5.31996 14.5178L26.8496 4.1506L16.4838 25.6828L15.4146 16.7835L17.4754 14.7225C17.8085 14.3894 17.8085 13.8592 17.4754 13.5261C17.1423 13.193 16.6121 13.193 16.279 13.5261L16.6326 13.8796L16.279 13.5261L14.2183 15.5871L5.31996 14.5178Z" fill="white" stroke="white"/>
</svg>
