<svg width="19" height="22" viewBox="0 0 19 22" fill="none" xmlns="http://www.w3.org/2000/svg">
<path d="M1 5.13538H18.013M16.1227 5.13538V18.5014C16.1227 19.0078 15.9235 19.4935 15.569 19.8515C15.2145 20.2096 14.7337 20.4108 14.2323 20.4108H4.78067C4.27932 20.4108 3.79851 20.2096 3.444 19.8515C3.08949 19.4935 2.89033 19.0078 2.89033 18.5014V5.13538M5.72584 5.13538V3.22596C5.72584 2.71954 5.925 2.23387 6.2795 1.87579C6.63401 1.5177 7.11482 1.31653 7.61617 1.31653H11.3968C11.8982 1.31653 12.379 1.5177 12.7335 1.87579C13.088 2.23387 13.2872 2.71954 13.2872 3.22596V5.13538M7.61617 9.90895V15.6372M11.3968 9.90895V15.6372" stroke="#7B7B7B" stroke-opacity="0.72" stroke-width="1.39" stroke-linecap="round" stroke-linejoin="round"/>
</svg>
